<svg width="113" height="112" viewBox="0 0 113 112" fill="none" xmlns="http://www.w3.org/2000/svg">
<path d="M56.5 105.562C82.6094 105.562 104.031 84.1406 104.031 58.0312C104.031 31.875 82.6094 10.4531 56.4531 10.4531C30.3438 10.4531 8.92188 31.875 8.92188 58.0312C8.92188 84.1406 30.3438 105.562 56.5 105.562ZM51.625 80.5312C49.4219 80.5312 47.6875 79.5 46.2344 77.7188L36.1094 65.8125C34.9375 64.4531 34.5156 63.2812 34.5156 61.875C34.5156 58.7812 37 56.3906 40.0469 56.3906C41.7812 56.3906 43.0938 57.0938 44.3125 58.5469L51.5312 67.0781L68.125 40.9219C69.4375 38.8594 70.9844 37.7812 73 37.7812C76 37.7812 78.6719 39.9844 78.6719 43.0312C78.6719 44.2031 78.25 45.4688 77.4062 46.7344L56.8281 77.625C55.6094 79.4062 53.6875 80.5312 51.625 80.5312Z" fill="black"/>
</svg>
